<svg width="136" height="164" viewBox="0 0 136 164" fill="none" xmlns="http://www.w3.org/2000/svg">
<g clip-path="url(#clip0)">
<path d="M97.3306 27.9454C107.152 27.9454 115.404 21.9047 117.768 13.7222L124.38 14.6095C124.509 14.6269 124.64 14.6356 124.767 14.6356C126.038 14.6356 127.15 13.7963 127.344 12.6301C127.557 11.3461 126.571 10.1493 125.148 9.95852L118.447 9.05929C118.449 9.00915 118.452 8.9601 118.452 8.90887C118.452 8.71049 118.444 8.5143 118.435 8.3181C118.435 8.3181 117.889 1.21361 117.136 -1.75005C116.385 -4.71371 114.07 -5.34263 114.07 -5.34263C102.255 -7.75366 90.1592 -8 87.0113 -8C83.8634 -8 83.1922 -6.54815 83.1922 -6.54815L79.3828 -1.1026L79.3707 -1.10587C79.2788 -0.972895 79.1941 -0.838827 79.1059 -0.704759L79.0732 -0.657891C77.2568 2.15426 76.2107 5.41984 76.2107 8.90887C76.2095 19.4228 85.6665 27.9454 97.3306 27.9454V27.9454Z" fill="white"/>
<path d="M143.772 70.7914V70.7892L111.432 68.4261L100.25 45.4144C100.25 45.4144 99.6925 42.3908 92.9843 36.1758C86.2737 29.9607 72.6686 32.4807 72.6686 32.4807C72.6686 32.4807 43.7824 37.3519 34.2782 39.3672C24.7728 41.3837 24.4003 50.1177 24.4003 50.1177L23.636 55.0433L5.2807 51.8377C5.04971 51.7974 4.81994 51.7778 4.59379 51.7778C2.89225 51.7778 1.36365 52.8677 1.02866 54.4253L-7.93374 96.1084C-8.31347 97.8741 -7.0219 99.5985 -5.06156 99.9407L56.8517 110.757C56.9908 110.781 57.1299 110.783 57.2701 110.793H57.2726C56.3922 110.906 55.7113 110.754 55.7113 110.754L44.3435 108.739L40.6163 127.383L12.1243 149.578C10.0673 151.062 8.74787 153.342 8.74787 155.901C8.74787 160.375 12.7701 164 17.732 164C20.193 164 22.4219 163.108 24.0448 161.662C24.0448 161.662 57.5737 137.628 59.811 135.948C62.0482 134.27 63.1645 131.749 63.1645 131.749C63.1645 131.749 68.6561 116.545 70.1532 113.356C71.1787 111.172 76.1177 112.18 76.1177 112.18L103.793 121.588L113.002 153.265C113.102 153.951 113.295 154.61 113.575 155.231H113.577C114.905 158.205 118.136 160.304 121.908 160.304C126.871 160.304 130.893 156.677 130.893 152.205C130.893 151.552 130.806 150.92 130.643 150.313C129.625 144.901 125.075 120.833 123.918 115.623C122.614 109.744 118.33 108.065 118.33 108.065C118.33 108.065 92.6094 95.4674 90.9333 94.6271C89.2559 93.7878 89.6296 91.6035 89.6296 91.6035L94.3823 75.983L97.7358 82.3659C97.7358 82.3659 99.6937 85.9345 102.675 86.062L143.015 86.9558C147.978 86.9558 152 83.3305 152 78.8561C151.999 74.6172 148.38 71.1402 143.772 70.7914V70.7914ZM57.3874 54.1485L55.2239 60.5575L67.194 62.6492L42.7484 58.3798L43.4111 55.6592L57.3874 54.1485ZM54.6676 103.713L-0.120208 94.142L7.46234 58.8779L22.6299 61.5276L20.6732 74.1354L19.8992 78.9379C19.8931 78.9662 19.8895 78.9989 19.8847 79.0273L19.8629 79.1657H19.8653C19.8169 79.5058 19.7891 79.8513 19.7891 80.2023C19.7891 84.6755 23.8126 88.2997 28.7745 88.2997C33.7364 88.2997 37.7587 84.6755 37.7587 80.2023C37.7587 79.8557 37.7333 79.5156 37.6849 79.181L41.1932 64.7681L62.2514 68.4457L54.6676 103.713Z" fill="white"/>
<path d="M14.9953 4.2285H60.9828C62.3131 4.2285 63.4015 3.25188 63.4015 2.05944C63.4015 0.867003 62.3131 -0.109619 60.9828 -0.109619H14.9953C13.6651 -0.109619 12.5767 0.867003 12.5767 2.05944C12.5767 3.25188 13.6651 4.2285 14.9953 4.2285V4.2285Z" fill="white"/>
<path d="M30.7529 10.7869C29.4226 10.7869 28.3342 11.7635 28.3342 12.956C28.3342 14.1484 29.4226 15.125 30.7529 15.125H58.5181C59.8484 15.125 60.9368 14.1484 60.9368 12.956C60.9368 11.7625 59.8484 10.7869 58.5181 10.7869H30.7529Z" fill="white"/>
<path d="M87.0981 32.732C95.2191 32.732 102.043 27.19 103.998 19.683L109.465 20.497C109.572 20.513 109.68 20.521 109.785 20.521C110.836 20.521 111.756 19.751 111.916 18.681C112.092 17.503 111.277 16.405 110.1 16.23L104.559 15.405C104.561 15.359 104.563 15.314 104.563 15.267C104.563 15.085 104.557 14.905 104.549 14.725C104.549 14.725 104.098 8.20703 103.475 5.48803C102.854 2.76903 100.94 2.19203 100.94 2.19203C91.1701 -0.0199716 81.1681 -0.245972 78.5641 -0.245972C75.9601 -0.245972 75.4061 1.08603 75.4061 1.08603L72.2561 6.08203L72.2461 6.07903C72.1701 6.20003 72.1001 6.32403 72.0271 6.44703L72.0001 6.49003C70.4981 9.07003 69.6331 12.066 69.6331 15.267C69.6331 24.913 77.4531 32.732 87.0981 32.732Z" fill="#3A3A3A"/>
<path d="M125.5 72.041V72.039L98.7579 69.871L89.5119 48.759C89.5119 48.759 89.0509 45.985 83.5039 40.283C77.9549 34.581 66.7049 36.893 66.7049 36.893C66.7049 36.893 42.8189 41.362 34.9599 43.21C27.0999 45.06 26.7919 53.073 26.7919 53.073L23.7099 75.109L23.0699 79.515C23.0649 79.541 23.0619 79.571 23.0579 79.597L23.0399 79.724H23.0419C23.0019 80.036 22.9789 80.353 22.9789 80.675C22.9789 84.779 26.3059 88.104 30.4089 88.104C34.5119 88.104 37.8379 84.779 37.8379 80.675C37.8379 80.357 37.8169 80.045 37.7769 79.738L42.5109 58.157L54.0679 56.771L52.2789 62.651L62.1769 64.57C63.7969 64.883 64.8649 66.466 64.5519 68.087L57.1399 106.33C56.8629 107.76 55.5989 108.76 54.1919 108.76C54.1199 108.76 54.0459 108.744 53.9719 108.739C53.2439 108.843 52.6809 108.704 52.6809 108.704L43.2809 106.855L40.1989 123.96L16.6389 144.323C14.9379 145.684 13.8469 147.776 13.8469 150.124C13.8469 154.228 17.1729 157.554 21.2759 157.554C23.3109 157.554 25.1539 156.736 26.4959 155.409C26.4959 155.409 54.2209 133.359 56.0709 131.818C57.9209 130.278 58.8439 127.965 58.8439 127.965C58.8439 127.965 63.3849 114.017 64.6229 111.091C65.4709 109.087 69.5549 110.012 69.5549 110.012L92.4399 118.643L100.055 147.705C100.137 148.335 100.297 148.939 100.528 149.509H100.53C101.628 152.237 104.3 154.163 107.419 154.163C111.523 154.163 114.849 150.836 114.849 146.733C114.849 146.134 114.777 145.554 114.642 144.997C113.8 140.032 110.038 117.951 109.081 113.171C108.003 107.777 104.46 106.237 104.46 106.237C104.46 106.237 83.1929 94.682 81.8069 93.91C80.4199 93.14 80.7289 91.136 80.7289 91.136L84.6589 76.805L87.4319 82.661C87.4319 82.661 89.0509 85.935 91.5159 86.052L124.873 86.872C128.977 86.872 132.303 83.546 132.303 79.441C132.303 75.551 129.311 72.36 125.5 72.041Z" fill="#3A3A3A"/>
<path d="M53.971 108.739H53.973C54.046 108.745 54.12 108.76 54.193 108.76C55.6 108.76 56.864 107.76 57.141 106.33L64.553 68.087C64.866 66.466 63.798 64.884 62.178 64.57L41.964 60.653L40.678 66.515L58.091 69.889L51.82 102.243L6.51603 93.464L12.786 61.111L25.328 63.542L26.16 57.592L10.982 54.65C10.791 54.613 10.601 54.595 10.414 54.595C9.00703 54.595 7.74303 55.595 7.46603 57.024L0.0550335 95.268C-0.258966 96.888 0.809034 98.47 2.43003 98.784L53.626 108.707C53.74 108.729 53.855 108.73 53.971 108.739Z" fill="#F0C42E"/>
<path d="M59.0419 8.982C59.0419 10.077 58.1419 10.972 57.0419 10.972H19.0149C17.9149 10.972 17.0149 10.076 17.0149 8.982C17.0149 7.888 17.9149 6.992 19.0149 6.992H57.0419C58.1419 6.993 59.0419 7.888 59.0419 8.982Z" fill="#F0C52E"/>
<path d="M57.0039 18.98C57.0039 20.074 56.1039 20.97 55.0039 20.97H32.0439C30.9439 20.97 30.0439 20.074 30.0439 18.98C30.0439 17.885 30.9439 16.99 32.0439 16.99H55.0029C56.1039 16.99 57.0039 17.886 57.0039 18.98Z" fill="#F0C52E"/>
</g>
<defs>
<clipPath id="clip0">
<rect width="136" height="164" fill="white"/>
</clipPath>
</defs>
</svg>
